:SAMPLES-PER-SECOND 24
:FULLY-SPECIFIED
:DEGREES
197
root  5.11484 39.948 -24.0353 175.875 43.1526 164.848
RightUpLeg  -17.5891 2.14365 -7.00722
RightLeg  22.1895 2.80716 1.04357
RightFoot  -12.289 -0.071601 0.882808
RightToes  -2.09809e-008 3.77894e-005 6.81332e-007
Spine  11.5532 -4.46629 1.68733
Spine1  1.85849 -6.80349 10.8959
HEad  -41.9587 38.8759 -32.0979
LeftShoulder1  6.69106 -12.6666 -35.3506
LeftArm  7.29456 17.9753 -30.3403
LeftForeArm  164.32 -69.8376 -152.858
LeftHand  -0.0144388 -3.32916 0.421042
RightShoulder  3.50508 6.12407 30.504
RightArm  -1.613 -29.9996 17.4743
RightForeArm  126.496 79.2976 116.303
RightHand  -0.520124 8.5016 -4.71582
LeftUpLeg  -32.3571 15.4807 2.32643
LeftLeg  51.2701 9.94653 13.4726
LeftFoot  4.56863 2.34093 -16.8485
LeftToes  1.24773e-006 1.46318e-008 1.32523e-009
198
root  5.02322 39.7955 -24.0373 178.902 39.8223 167.882
RightUpLeg  -17.7337 -2.52321 -5.34819
RightLeg  22.0245 4.36409 1.72463
RightFoot  -14.8198 0.0913435 6.20897
RightToes  -2.09809e-008 3.77894e-005 6.81332e-007
Spine  10.702 -4.58211 2.41858
Spine1  2.40669 -7.20008 12.1622
HEad  -42.1628 38.1351 -32.2864
LeftShoulder1  6.60646 -12.6183 -34.9572
LeftArm  7.83342 15.5908 -29.8682
LeftForeArm  163.05 -70.6056 -151.579
LeftHand  -0.00506831 -3.33981 0.308293
RightShoulder  3.42556 6.02212 30.0515
RightArm  -5.40587 -31.8621 16.6242
RightForeArm  117.067 79.9948 106.481
RightHand  -0.488986 8.70312 -4.40305
LeftUpLeg  -29.1257 13.9135 2.20778
LeftLeg  47.6868 9.85501 11.8143
LeftFoot  4.40582 2.25519 -16.4085
LeftToes  1.24773e-006 1.46318e-008 1.32523e-009
199
root  4.93702 39.696 -24.0481 -178.999 36.8786 169.893
RightUpLeg  -17.7596 -5.25372 -4.03177
RightLeg  21.5066 4.22647 1.61974
RightFoot  -16.44 0.280949 8.80336
RightToes  -2.09809e-008 3.77894e-005 6.81332e-007
Spine  9.82738 -4.37229 3.60954
Spine1  2.85362 -6.9143 11.9026
HEad  -41.8431 37.4734 -32.3185
LeftShoulder1  6.58836 -12.605 -34.8799
LeftArm  7.97878 14.4885 -28.8065
LeftForeArm  162.437 -70.7468 -151.281
LeftHand  -0.00970507 -3.14184 0.365442
RightShoulder  3.39194 5.99276 29.8042
RightArm  -8.28255 -32.6625 15.9102
RightForeArm  106.617 80.3596 95.767
RightHand  -0.447863 8.8455 -4.03056
LeftUpLeg  -26.2283 13.9386 2.32242
LeftLeg  44.2359 10.1743 10.832
LeftFoot  3.82036 2.11647 -15.9913
LeftToes  1.24773e-006 1.46318e-008 1.32523e-009
200
root  4.82789 39.6747 -24.0584 -177.624 34.0261 171.105
RightUpLeg  -17.8137 -5.93505 -3.1769
RightLeg  21.0003 1.95251 0.613939
RightFoot  -16.7103 0.269152 8.13767
RightToes  -2.09809e-008 3.77894e-005 6.81332e-007
Spine  9.20756 -4.11392 4.86044
Spine1  3.12151 -6.36643 10.7361
HEad  -41.2201 37.0143 -32.5345
LeftShoulder1  6.6317 -12.6411 -35.0539
LeftArm  7.48255 14.7912 -27.4505
LeftForeArm  162.233 -70.6039 -151.469
LeftHand  -0.0384407 -2.78596 0.763419
RightShoulder  3.39607 6.01348 29.7689
RightArm  -9.5257 -31.5982 15.029
RightForeArm  96.2591 80.378 85.2705
RightHand  -0.494684 8.78248 -4.42765
LeftUpLeg  -24.0197 14.0031 2.5786
LeftLeg  41.1913 10.9385 10.466
LeftFoot  2.54037 1.81918 -14.9955
LeftToes  1.24773e-006 1.46318e-008 1.32523e-009
201
root  4.70323 39.7236 -24.0578 -176.925 30.771 171.677
RightUpLeg  -17.5127 -6.3445 -2.84718
RightLeg  20.2459 -1.05565 -0.646661
RightFoot  -16.0246 0.144362 6.16451
RightToes  -2.09809e-008 3.77894e-005 6.81332e-007
Spine  9.01936 -3.91821 5.50711
Spine1  3.2789 -5.92842 9.7107
HEad  -40.2364 36.4849 -32.5309
LeftShoulder1  6.62089 -12.6253 -35.0279
LeftArm  6.46624 15.9156 -26.5854
LeftForeArm  161.42 -70.7032 -151.204
LeftHand  -0.0845979 -2.60731 1.43706
RightShoulder  3.37724 5.98177 29.6881
RightArm  -9.858 -28.6786 14.1522
RightForeArm  86.6732 80.1082 75.1333
RightHand  -0.508248 8.74654 -4.54816
LeftUpLeg  -22.6831 13.2603 2.69248
LeftLeg  38.8927 11.6683 10.2874
LeftFoot  1.63215 1.53144 -13.5081
LeftToes  1.24773e-006 1.46318e-008 1.32523e-009
202
root  4.56147 39.8093 -24.0941 -176.386 27.1642 172.362
RightUpLeg  -16.7725 -9.02663 -2.41009
RightLeg  19.0912 -2.19699 -1.04752
RightFoot  -15.1406 0.0676903 5.13053
RightToes  -2.09809e-008 3.77894e-005 6.81332e-007
Spine  8.67578 -3.75644 6.80756
Spine1  3.69182 -5.44427 8.27801
HEad  -38.6236 35.8225 -32.0863
LeftShoulder1  6.60307 -12.5948 -34.9955
LeftArm  5.69284 17.2689 -25.9463
LeftForeArm  160.283 -70.9795 -150.615
LeftHand  -0.101247 -2.67135 1.67239
RightShoulder  3.34658 5.95174 29.4725
RightArm  -9.76511 -24.8013 13.4631
RightForeArm  78.4838 79.6088 66.5967
RightHand  -0.477827 8.66718 -4.32035
LeftUpLeg  -22.1892 12.7814 2.85971
LeftLeg  37.1524 11.9717 9.93142
LeftFoot  2.02183 1.44041 -12.3673
LeftToes  1.24773e-006 1.46318e-008 1.32523e-009
